<?xml version="1.0" encoding="utf-8"?>
<!-- Generator: Adobe Illustrator 26.5.0, SVG Export Plug-In . SVG Version: 6.00 Build 0)  -->
<svg version="1.1" id="Layer_1" xmlns="http://www.w3.org/2000/svg" xmlns:xlink="http://www.w3.org/1999/xlink" x="0px" y="0px"
	 viewBox="0 0 1050 1050" style="enable-background:new 0 0 1050 1050;" xml:space="preserve">
<style type="text/css">
	.st0{fill:url(#SVGID_1_);}
</style>
<g id="Ellipse_1">
	<g>
		<linearGradient id="SVGID_1_" gradientUnits="userSpaceOnUse" x1="122.8182" y1="862.4662" x2="927.1825" y2="187.5244">
			<stop  offset="0" style="stop-color:#EBCAE5"/>
			<stop  offset="0.3254" style="stop-color:#EFC6D1"/>
			<stop  offset="0.7487" style="stop-color:#C8DAF3"/>
			<stop  offset="1" style="stop-color:#FFCEB4"/>
		</linearGradient>
		<path class="st0" d="M525,1c70.7,0,139.4,13.9,204,41.2c62.4,26.4,118.4,64.2,166.6,112.3c48.1,48.1,85.9,104.2,112.3,166.6
			c27.3,64.6,41.2,133.2,41.2,204c0,70.7-13.9,139.4-41.2,204c-26.4,62.4-64.2,118.4-112.3,166.6c-48.1,48.1-104.2,85.9-166.6,112.3
			c-64.6,27.3-133.2,41.2-204,41.2s-139.4-13.9-204-41.2c-62.4-26.4-118.4-64.2-166.6-112.3C106.4,847.4,68.6,791.4,42.2,729
			C14.9,664.4,1,595.7,1,525c0-70.7,13.9-139.4,41.2-204c26.4-62.4,64.2-118.4,112.3-166.6S258.6,68.6,321,42.2
			C385.6,14.9,454.3,1,525,1 M525,0C235.1,0,0,235,0,525c0,290,235.1,525,525,525s525-235.1,525-525C1050,235,814.9,0,525,0L525,0z"
			/>
	</g>
</g>
</svg>
